<?xml version="1.0" encoding="UTF-8" standalone="no"?>
<svg width="71px" height="24px" viewBox="0 0 71 24" version="1.1" xmlns="http://www.w3.org/2000/svg" xmlns:xlink="http://www.w3.org/1999/xlink" xmlns:sketch="http://www.bohemiancoding.com/sketch/ns">
    <!-- Generator: Sketch 3.0.4 (8054) - http://www.bohemiancoding.com/sketch -->
    <title>g+ </title>
    <desc>Created with Sketch.</desc>
    <defs></defs>
    <g id="Page-1" stroke="none" stroke-width="1" fill="none" fill-rule="evenodd" sketch:type="MSPage">
        <g id="g+-" sketch:type="MSLayerGroup">
            <g>
                <rect id="Rectangle-11" stroke="#D3D3D3" sketch:type="MSShapeGroup" x="0" y="0" width="71" height="24" rx="2"></rect>
                <g id="1413023062_google-plus" transform="translate(3.000000, 3.000000)" fill="#E02F2F" sketch:type="MSShapeGroup">
                    <g id="Group">
                        <path d="M9.2390625,10.3584375 C8.7345,10.0018125 7.7715,9.1344375 7.7715,8.62425 C7.7715,8.026875 7.9419375,7.732125 8.841375,7.0295625 C9.76275,6.309 10.4158125,5.1283125 10.4158125,3.9493125 C10.4158125,2.5475625 9.7903125,1.6875 8.6180625,0.5625 L10.3865625,0.5625 L11.6341875,0 L6.058125,0 C3.5578125,0 1.206,1.891125 1.206,4.0843125 C1.206,6.3264375 2.9098125,8.134875 5.4534375,8.134875 C5.6300625,8.134875 5.801625,8.130375 5.970375,8.119125 C5.805,8.434125 5.6874375,8.789625 5.6874375,9.1591875 C5.6874375,9.7824375 6.0226875,10.2875625 6.4456875,10.7004375 C6.12675,10.7004375 5.8168125,10.7094375 5.479875,10.7094375 C2.3821875,10.708875 0,12.6804375 0,14.7256875 C0,16.738875 2.6128125,18 5.70825,18 C9.2385,18 11.1875625,15.996375 11.1875625,13.982625 C11.188125,12.3676875 10.711125,11.4013125 9.2390625,10.3584375 L9.2390625,10.3584375 Z M6.2600625,7.5645 C4.822875,7.52175 3.45825,5.9574375 3.2101875,4.0719375 C2.9626875,2.18475 3.9256875,0.7408125 5.3611875,0.7835625 C6.7978125,0.8274375 8.163,2.3405625 8.411625,4.2271875 C8.6596875,6.114375 7.6955625,7.60725 6.2600625,7.5645 L6.2600625,7.5645 Z M5.697,17.1084375 C3.5566875,17.1084375 2.0109375,15.7545 2.0109375,14.126625 C2.0109375,12.5325 3.9279375,11.2044375 6.0688125,11.2275 C6.5683125,11.233125 7.0335,11.313 7.455375,11.4496875 C8.6175,12.2585625 9.451125,12.7153125 9.687375,13.635 C9.730125,13.82175 9.7554375,14.0146875 9.7554375,14.2104375 C9.7554375,15.8371875 8.706375,17.1084375 5.697,17.1084375 L5.697,17.1084375 Z" id="Shape"></path>
                        <path d="M15.1875,7.875 L15.1875,5.0625 L14.0625,5.0625 L14.0625,7.875 L11.25,7.875 L11.25,9 L14.0625,9 L14.0625,11.8125 L15.1875,11.8125 L15.1875,9 L18,9 L18,7.875 L15.1875,7.875 Z" id="Shape"></path>
                    </g>
                </g>
                <text id="Visit-Us" sketch:type="MSTextLayer" font-family="Roboto,arial,sans-serif" font-size="11" font-weight="700" fill="#262626">
                    <tspan x="25" y="16" font-weight="700">Visit Us</tspan>
                </text>
            </g>
        </g>
    </g>
</svg>